<?xml version="1.0" encoding="iso-8859-1"?>
<!-- Generator: Adobe Illustrator 19.0.0, SVG Export Plug-In . SVG Version: 6.00 Build 0)  -->
<svg version="1.1" id="Layer_1" xmlns="http://www.w3.org/2000/svg" xmlns:xlink="http://www.w3.org/1999/xlink" x="0px" y="0px"
	 viewBox="0 0 512 512" style="enable-background:new 0 0 512 512;" xml:space="preserve">
<path style="fill:#5A6B96;" d="M198.769,313.23c60.405,60.405,86.263,136.311,67.571,185.796
	c13.342-7.122,25.789-16.232,36.925-27.368c66.272-66.272,61.14-178.854-11.465-251.459s-185.186-77.736-251.459-11.464
	c-11.135,11.135-20.245,23.583-27.368,36.925C62.458,226.967,138.364,252.826,198.769,313.23z"/>
<path style="fill:#EFEFEF;" d="M491.531,169.483c-4.442,16.43-10.787,30.384-19.759,39.356
	c-44.014,53.753-114.435,112.295-182.586,152.18L150.972,222.804c39.896-68.151,98.438-138.571,152.191-182.586
	c8.961-8.961,22.926-15.316,39.345-19.759L491.531,169.483z"/>
<path style="fill:#FF7D46;" d="M491.531,169.483L342.508,20.459c60.92-16.495,155.79-6.756,155.79-6.756
	S508.037,108.564,491.531,169.483z"/>
<circle style="fill:#45CCFF;" cx="320.271" cy="191.73" r="48.641"/>
<path style="fill:#FF7D46;" d="M289.187,361.019c-13.457,7.891-26.817,15.035-39.864,21.272
	c-39.874-39.864-79.749-79.738-119.623-119.612c6.248-13.057,13.392-26.417,21.272-39.874L289.187,361.019z"/>
<path style="fill:#5A6B96;" d="M209.64,343.634c-36.443,36.443-86.622,45.349-86.622,45.349s8.907-50.179,45.349-86.622
	s86.622-45.349,86.622-45.349S246.083,307.19,209.64,343.634z"/>
<g>
	<path style="fill:#231F20;" d="M509.051,12.6c-0.523-5.096-4.552-9.125-9.649-9.649c-3.955-0.405-97.571-9.75-159.711,7.073
		c-0.002,0-0.004,0.001-0.007,0.001c-19.392,5.247-34.113,12.7-43.766,22.153c-37.728,30.969-77.654,74.49-112.163,121.418
		c-54.979-8.142-111,7.438-151.058,47.495c-11.651,11.651-21.496,24.933-29.26,39.477c-2.121,3.972-1.556,8.842,1.415,12.225
		c2.971,3.381,7.725,4.569,11.94,2.978c28.725-10.851,66.919-4.869,105.09,14.363c0.058,0.062,0.112,0.126,0.173,0.187
		c10.591,10.591,21.181,21.18,31.772,31.77c-32.675,37.338-41.09,82.954-41.454,85.002c-0.617,3.476,0.503,7.036,2.999,9.532
		c2.045,2.045,4.801,3.166,7.643,3.166c0.628,0,1.26-0.055,1.889-0.166c2.048-0.363,47.668-8.78,85.005-41.457
		c10.59,10.59,21.179,21.179,31.769,31.767c0.055,0.055,0.115,0.101,0.171,0.155c19.244,38.182,25.23,76.386,14.377,105.118
		c-1.591,4.212-0.404,8.968,2.978,11.94c2.018,1.773,4.566,2.689,7.136,2.689c1.738,0,3.487-0.418,5.089-1.274
		c14.544-7.764,27.826-17.609,39.477-29.26c34.228-34.227,51.806-80.924,49.501-131.49c-0.301-6.595-0.94-13.151-1.903-19.65
		c46.882-34.484,90.358-74.375,121.306-112.08c9.457-9.654,16.909-24.379,22.154-43.778c0-0.001,0-0.002,0.001-0.003
		C518.799,110.16,509.456,16.554,509.051,12.6z M488.305,23.7c1.644,21.593,4.784,78.362-3.114,124.157L364.139,26.804
		C409.91,18.923,466.707,22.059,488.305,23.7z M48.203,228.814c-3.987,0-7.902,0.181-11.735,0.543
		c3.571-4.544,7.416-8.879,11.517-12.979c32.368-32.368,76.745-46.397,121.485-42.699c-9.939,14.445-19.289,29.082-27.823,43.661
		l-0.001,0.001c-6.008,10.259-11.567,20.426-16.604,30.35c-6.504-3.029-13.053-5.741-19.63-8.088
		C85.286,232.419,66.01,228.814,48.203,228.814z M169.191,286.88c-8.797-8.796-17.594-17.592-26.391-26.389
		c3.274-6.564,6.799-13.256,10.549-20.025l33.323,33.323C180.785,277.632,174.899,281.978,169.191,286.88z M138.361,373.639
		c5.571-16.819,16.843-42.83,37.65-63.637s46.821-32.079,63.637-37.65c-5.571,16.819-16.843,42.83-37.65,63.637
		C181.19,356.797,155.176,368.069,138.361,373.639z M251.511,369.194c-8.796-8.794-17.593-17.591-26.389-26.387
		c4.902-5.707,9.247-11.593,13.089-17.478l33.318,33.318C264.765,362.396,258.074,365.921,251.511,369.194z M338.814,348.796
		c2.026,44.423-13.313,85.341-43.192,115.22c-4.101,4.101-8.435,7.946-12.979,11.517c1.978-20.947-1.454-44.313-10.247-68.943
		c-2.349-6.578-5.061-13.13-8.091-19.635c9.926-5.035,20.089-10.596,30.339-16.605c0.001,0,0.002-0.001,0.002-0.001
		c14.607-8.549,29.272-17.917,43.745-27.875C338.567,344.576,338.718,346.683,338.814,348.796z M469.958,193.808
		c-0.118-0.13-0.228-0.266-0.353-0.391l-29.897-29.897c-4.221-4.221-11.065-4.221-15.287,0c-4.221,4.221-4.221,11.065,0,15.286
		l29.897,29.897c0.639,0.639,1.344,1.17,2.084,1.615c-41.794,48.514-103.757,99.884-165.512,137.118l-41.584-41.584
		c12.25-24.785,16.085-45.582,16.327-46.95c0.617-3.476-0.503-7.036-2.999-9.532c-2.498-2.497-6.057-3.616-9.532-2.999
		c-1.368,0.243-22.165,4.077-46.95,16.327l-41.593-41.593c37.191-61.668,88.466-123.539,136.909-165.327
		c0.223,0.27,0.457,0.533,0.709,0.785l63.519,63.519c2.111,2.111,4.877,3.166,7.643,3.166s5.533-1.056,7.643-3.166
		c4.221-4.221,4.221-11.065,0-15.286l-62.771-62.771c5.569-3.563,12.642-6.706,21.179-9.395l69.995,69.995l69.979,69.979
		C476.673,181.151,473.526,188.235,469.958,193.808z"/>
	<path style="fill:#231F20;" d="M394.713,133.812c-4.221,4.221-4.221,11.065,0,15.286l1.081,1.081
		c2.111,2.111,4.877,3.166,7.643,3.166c2.766,0,5.533-1.055,7.643-3.166c4.221-4.221,4.221-11.065,0-15.286l-1.081-1.081
		C405.778,129.59,398.934,129.59,394.713,133.812z"/>
	<path style="fill:#231F20;" d="M320.269,132.282c-15.88,0-30.809,6.184-42.037,17.412c-23.179,23.179-23.179,60.895,0,84.074
		c11.228,11.228,26.158,17.412,42.037,17.412c15.88,0,30.809-6.184,42.037-17.412c11.229-11.228,17.412-26.158,17.412-42.037
		s-6.184-30.809-17.412-42.037C351.078,138.466,336.149,132.282,320.269,132.282z M347.02,218.483L347.02,218.483
		c-7.146,7.146-16.646,11.08-26.751,11.08s-19.605-3.936-26.751-11.08c-14.75-14.75-14.75-38.751,0-53.501
		c7.145-7.146,16.646-11.08,26.751-11.08s19.605,3.934,26.751,11.08c7.145,7.146,11.08,16.646,11.08,26.751
		C358.101,201.837,354.165,211.337,347.02,218.483z"/>
	<path style="fill:#231F20;" d="M10.809,420.282c2.766,0,5.533-1.055,7.643-3.166l74.471-74.471c4.221-4.221,4.221-11.065,0-15.286
		s-11.065-4.221-15.287,0L3.166,401.83c-4.221,4.221-4.221,11.065,0,15.286C5.277,419.226,8.043,420.282,10.809,420.282z"/>
	<path style="fill:#231F20;" d="M169.355,419.076l-74.472,74.472c-4.221,4.221-4.221,11.065,0,15.286
		c2.111,2.111,4.877,3.166,7.643,3.166s5.533-1.056,7.643-3.166l74.472-74.472c4.221-4.221,4.221-11.065,0-15.286
		C180.421,414.855,173.577,414.855,169.355,419.076z"/>
	<path style="fill:#231F20;" d="M95.031,416.969c-4.221-4.221-11.065-4.221-15.287,0L4.248,492.465
		c-4.221,4.221-4.221,11.065,0,15.286c2.111,2.111,4.877,3.166,7.643,3.166s5.533-1.055,7.643-3.166l75.496-75.496
		C99.251,428.035,99.251,421.19,95.031,416.969z"/>
</g>
<g>
</g>
<g>
</g>
<g>
</g>
<g>
</g>
<g>
</g>
<g>
</g>
<g>
</g>
<g>
</g>
<g>
</g>
<g>
</g>
<g>
</g>
<g>
</g>
<g>
</g>
<g>
</g>
<g>
</g>
</svg>
